<?xml version="1.0" encoding="UTF-8" standalone="no"?>
<svg
   class="svglite"
   width="561.81982pt"
   height="309.82123pt"
   viewBox="0 0 561.81982 309.82123"
   version="1.1"
   id="svg2598"
   sodipodi:docname="big-mac-gdp.svg"
   inkscape:export-filename="C:\Users\dzulf\Documents\Projects\tidytuesday-participation\2020\2022-12-22-big-mac-index\result\big-mac-gdp.png"
   inkscape:export-xdpi="164.03836"
   inkscape:export-ydpi="164.03836"
   inkscape:version="1.1.2 (b8e25be833, 2022-02-05)"
   xmlns:inkscape="http://www.inkscape.org/namespaces/inkscape"
   xmlns:sodipodi="http://sodipodi.sourceforge.net/DTD/sodipodi-0.dtd"
   xmlns="http://www.w3.org/2000/svg"
   xmlns:svg="http://www.w3.org/2000/svg">
  <sodipodi:namedview
     id="namedview2600"
     pagecolor="#ffffff"
     bordercolor="#666666"
     borderopacity="1.0"
     inkscape:pageshadow="2"
     inkscape:pageopacity="0.0"
     inkscape:pagecheckerboard="0"
     inkscape:document-units="pt"
     showgrid="false"
     inkscape:zoom="1.9127604"
     inkscape:cx="377.72634"
     inkscape:cy="213.82709"
     inkscape:window-width="1920"
     inkscape:window-height="1046"
     inkscape:window-x="-11"
     inkscape:window-y="-11"
     inkscape:window-maximized="1"
     inkscape:current-layer="svg2598" />
  <defs
     id="defs2274">
    <style
       type="text/css"
       id="style2272"><![CDATA[
    .svglite line, .svglite polyline, .svglite polygon, .svglite path, .svglite rect, .svglite circle {
      fill: none;
      stroke: #000000;
      stroke-linecap: round;
      stroke-linejoin: round;
      stroke-miterlimit: 10.00;
    }
    .svglite text {
      white-space: pre;
    }
  ]]></style>
  </defs>
  <rect
     width="100%"
     height="100%"
     style="fill:#ffffff;stroke:none"
     id="rect2276"
     x="-7.0900002"
     y="-7.0885153" />
  <defs
     id="defs2281">
    <clipPath
       id="cpMC4wMHw1NzYuMDB8MC4wMHwzMjQuMDA=">
      <rect
         x="0"
         y="0"
         width="576"
         height="324"
         id="rect2278" />
    </clipPath>
  </defs>
  <g
     clip-path="url(#cpMC4wMHw1NzYuMDB8MC4wMHwzMjQuMDA=)"
     id="g2285"
     transform="translate(-7.09,-7.0885155)">
    <rect
       x="0"
       y="0"
       width="576"
       height="324"
       style="fill:#ffffff;stroke:none;stroke-width:1.07"
       id="rect2283" />
  </g>
  <defs
     id="defs2290">
    <clipPath
       id="cpNy4wOXw1NDEuNzZ8NDYuNTh8MjU2LjI3">
      <rect
         x="7.0900002"
         y="46.580002"
         width="534.67999"
         height="209.7"
         id="rect2287" />
    </clipPath>
  </defs>
  <g
     clip-path="url(#cpNy4wOXw1NDEuNzZ8NDYuNTh8MjU2LjI3)"
     id="g2480"
     transform="translate(-7.09,-7.0885155)">
    <rect
       x="7.0900002"
       y="46.580002"
       width="534.67999"
       height="209.7"
       style="fill:#ffffff;stroke:none;stroke-width:1.07"
       id="rect2292" />
    <polyline
       points="7.09,256.27 541.76,256.27 "
       style="stroke:#e0e0e0;stroke-width:1.16;stroke-linecap:butt"
       id="polyline2294" />
    <polyline
       points="7.09,203.85 541.76,203.85 "
       style="stroke:#e0e0e0;stroke-width:1.16;stroke-linecap:butt"
       id="polyline2296" />
    <polyline
       points="7.09,151.42 541.76,151.42 "
       style="stroke:#e0e0e0;stroke-width:1.16;stroke-linecap:butt"
       id="polyline2298" />
    <polyline
       points="7.09,99.00 541.76,99.00 "
       style="stroke:#e0e0e0;stroke-width:1.16;stroke-linecap:butt"
       id="polyline2300" />
    <polyline
       points="7.09,46.58 541.76,46.58 "
       style="stroke:#e0e0e0;stroke-width:1.16;stroke-linecap:butt"
       id="polyline2302" />
    <polyline
       points="31.39,256.27 31.39,46.58 "
       style="stroke:#e0e0e0;stroke-width:1.16;stroke-linecap:butt"
       id="polyline2304" />
    <polyline
       points="112.40,256.27 112.40,46.58 "
       style="stroke:#e0e0e0;stroke-width:1.16;stroke-linecap:butt"
       id="polyline2306" />
    <polyline
       points="193.41,256.27 193.41,46.58 "
       style="stroke:#e0e0e0;stroke-width:1.16;stroke-linecap:butt"
       id="polyline2308" />
    <polyline
       points="274.43,256.27 274.43,46.58 "
       style="stroke:#e0e0e0;stroke-width:1.16;stroke-linecap:butt"
       id="polyline2310" />
    <polyline
       points="355.44,256.27 355.44,46.58 "
       style="stroke:#e0e0e0;stroke-width:1.16;stroke-linecap:butt"
       id="polyline2312" />
    <polyline
       points="436.45,256.27 436.45,46.58 "
       style="stroke:#e0e0e0;stroke-width:1.16;stroke-linecap:butt"
       id="polyline2314" />
    <polyline
       points="517.46,256.27 517.46,46.58 "
       style="stroke:#e0e0e0;stroke-width:1.16;stroke-linecap:butt"
       id="polyline2316" />
    <line
       x1="94.349998"
       y1="164.28999"
       x2="94.349998"
       y2="177.85001"
       style="stroke:#b0bec5;stroke-width:1.07;stroke-linecap:butt;stroke-dasharray:5.69, 5.69"
       id="line2318" />
    <line
       x1="336.10001"
       y1="136.25999"
       x2="336.10001"
       y2="129.53"
       style="stroke:#b0bec5;stroke-width:1.07;stroke-linecap:butt;stroke-dasharray:5.69, 5.69"
       id="line2320" />
    <line
       x1="79.769997"
       y1="153.69"
       x2="79.769997"
       y2="180.77"
       style="stroke:#b0bec5;stroke-width:1.07;stroke-linecap:butt;stroke-dasharray:5.69, 5.69"
       id="line2322" />
    <line
       x1="281.39001"
       y1="123.2"
       x2="281.39001"
       y2="140.47"
       style="stroke:#b0bec5;stroke-width:1.07;stroke-linecap:butt;stroke-dasharray:5.69, 5.69"
       id="line2324" />
    <line
       x1="480.53"
       y1="75.260002"
       x2="480.53"
       y2="100.66"
       style="stroke:#b0bec5;stroke-width:1.07;stroke-linecap:butt;stroke-dasharray:5.69, 5.69"
       id="line2326" />
    <line
       x1="117.27"
       y1="165.09"
       x2="117.27"
       y2="173.27"
       style="stroke:#b0bec5;stroke-width:1.07;stroke-linecap:butt;stroke-dasharray:5.69, 5.69"
       id="line2328" />
    <line
       x1="83.129997"
       y1="175.05"
       x2="83.129997"
       y2="180.10001"
       style="stroke:#b0bec5;stroke-width:1.07;stroke-linecap:butt;stroke-dasharray:5.69, 5.69"
       id="line2330" />
    <line
       x1="67.260002"
       y1="170.03"
       x2="67.260002"
       y2="183.27"
       style="stroke:#b0bec5;stroke-width:1.07;stroke-linecap:butt;stroke-dasharray:5.69, 5.69"
       id="line2332" />
    <line
       x1="156.22"
       y1="156.63"
       x2="156.22"
       y2="165.49001"
       style="stroke:#b0bec5;stroke-width:1.07;stroke-linecap:butt;stroke-dasharray:5.69, 5.69"
       id="line2334" />
    <line
       x1="360.28"
       y1="136.2"
       x2="360.28"
       y2="124.7"
       style="stroke:#b0bec5;stroke-width:1.07;stroke-linecap:butt;stroke-dasharray:5.69, 5.69"
       id="line2336" />
    <line
       x1="45.290001"
       y1="187.25"
       x2="45.290001"
       y2="187.66"
       style="stroke:#b0bec5;stroke-width:1.07;stroke-linecap:butt;stroke-dasharray:5.69, 5.69"
       id="line2338" />
    <line
       x1="248.75999"
       y1="130.82001"
       x2="248.75999"
       y2="146.99001"
       style="stroke:#b0bec5;stroke-width:1.07;stroke-linecap:butt;stroke-dasharray:5.69, 5.69"
       id="line2340" />
    <line
       x1="261.35001"
       y1="144.14999"
       x2="261.35001"
       y2="144.47"
       style="stroke:#b0bec5;stroke-width:1.07;stroke-linecap:butt;stroke-dasharray:5.69, 5.69"
       id="line2342" />
    <line
       x1="293.06"
       y1="186.95"
       x2="293.06"
       y2="138.14"
       style="stroke:#b0bec5;stroke-width:1.07;stroke-linecap:butt;stroke-dasharray:5.69, 5.69"
       id="line2344" />
    <line
       x1="120.42"
       y1="180.50999"
       x2="120.42"
       y2="172.64"
       style="stroke:#b0bec5;stroke-width:1.07;stroke-linecap:butt;stroke-dasharray:5.69, 5.69"
       id="line2346" />
    <line
       x1="52.290001"
       y1="194.53"
       x2="52.290001"
       y2="186.25999"
       style="stroke:#b0bec5;stroke-width:1.07;stroke-linecap:butt;stroke-dasharray:5.69, 5.69"
       id="line2348" />
    <line
       x1="42.400002"
       y1="190.03999"
       x2="42.400002"
       y2="188.24001"
       style="stroke:#b0bec5;stroke-width:1.07;stroke-linecap:butt;stroke-dasharray:5.69, 5.69"
       id="line2350" />
    <line
       x1="256.75"
       y1="126.61"
       x2="256.75"
       y2="145.39"
       style="stroke:#b0bec5;stroke-width:1.07;stroke-linecap:butt;stroke-dasharray:5.69, 5.69"
       id="line2352" />
    <line
       x1="243.66"
       y1="160.98"
       x2="243.66"
       y2="148.00999"
       style="stroke:#b0bec5;stroke-width:1.07;stroke-linecap:butt;stroke-dasharray:5.69, 5.69"
       id="line2354" />
    <line
       x1="211.34"
       y1="158.05"
       x2="211.34"
       y2="154.47"
       style="stroke:#b0bec5;stroke-width:1.07;stroke-linecap:butt;stroke-dasharray:5.69, 5.69"
       id="line2356" />
    <line
       x1="84.300003"
       y1="197.86"
       x2="84.300003"
       y2="179.86"
       style="stroke:#b0bec5;stroke-width:1.07;stroke-linecap:butt;stroke-dasharray:5.69, 5.69"
       id="line2358" />
    <line
       x1="91.190002"
       y1="194.88"
       x2="91.190002"
       y2="178.49001"
       style="stroke:#b0bec5;stroke-width:1.07;stroke-linecap:butt;stroke-dasharray:5.69, 5.69"
       id="line2360" />
    <line
       x1="471.82001"
       y1="110.82"
       x2="471.82001"
       y2="102.4"
       style="stroke:#b0bec5;stroke-width:1.07;stroke-linecap:butt;stroke-dasharray:5.69, 5.69"
       id="line2362" />
    <line
       x1="253.92999"
       y1="142.28999"
       x2="253.92999"
       y2="145.96001"
       style="stroke:#b0bec5;stroke-width:1.07;stroke-linecap:butt;stroke-dasharray:5.69, 5.69"
       id="line2364" />
    <line
       x1="39.84"
       y1="169.69"
       x2="39.84"
       y2="188.75"
       style="stroke:#b0bec5;stroke-width:1.07;stroke-linecap:butt;stroke-dasharray:5.69, 5.69"
       id="line2366" />
    <line
       x1="69.230003"
       y1="167.08"
       x2="69.230003"
       y2="182.87"
       style="stroke:#b0bec5;stroke-width:1.07;stroke-linecap:butt;stroke-dasharray:5.69, 5.69"
       id="line2368" />
    <line
       x1="48.16"
       y1="180.96001"
       x2="48.16"
       y2="187.09"
       style="stroke:#b0bec5;stroke-width:1.07;stroke-linecap:butt;stroke-dasharray:5.69, 5.69"
       id="line2370" />
    <line
       x1="114.7"
       y1="183.14999"
       x2="114.7"
       y2="173.78999"
       style="stroke:#b0bec5;stroke-width:1.07;stroke-linecap:butt;stroke-dasharray:5.69, 5.69"
       id="line2372" />
    <line
       x1="92.360001"
       y1="206.14"
       x2="92.360001"
       y2="178.25"
       style="stroke:#b0bec5;stroke-width:1.07;stroke-linecap:butt;stroke-dasharray:5.69, 5.69"
       id="line2374" />
    <line
       x1="158.52"
       y1="158.44"
       x2="158.52"
       y2="165.03"
       style="stroke:#b0bec5;stroke-width:1.07;stroke-linecap:butt;stroke-dasharray:5.69, 5.69"
       id="line2376" />
    <line
       x1="380.17001"
       y1="144.82001"
       x2="380.17001"
       y2="120.73"
       style="stroke:#b0bec5;stroke-width:1.07;stroke-linecap:butt;stroke-dasharray:5.69, 5.69"
       id="line2378" />
    <line
       x1="324.95999"
       y1="105.4"
       x2="324.95999"
       y2="131.75999"
       style="stroke:#b0bec5;stroke-width:1.07;stroke-linecap:butt;stroke-dasharray:5.69, 5.69"
       id="line2380" />
    <line
       x1="71.620003"
       y1="149.37"
       x2="71.620003"
       y2="182.39999"
       style="stroke:#b0bec5;stroke-width:1.07;stroke-linecap:butt;stroke-dasharray:5.69, 5.69"
       id="line2382" />
    <line
       x1="82.190002"
       y1="202.81"
       x2="82.190002"
       y2="180.28999"
       style="stroke:#b0bec5;stroke-width:1.07;stroke-linecap:butt;stroke-dasharray:5.69, 5.69"
       id="line2384" />
    <line
       x1="166.45"
       y1="192.2"
       x2="166.45"
       y2="163.44"
       style="stroke:#b0bec5;stroke-width:1.07;stroke-linecap:butt;stroke-dasharray:5.69, 5.69"
       id="line2386" />
    <line
       x1="370.92999"
       y1="106.6"
       x2="370.92999"
       y2="122.57"
       style="stroke:#b0bec5;stroke-width:1.07;stroke-linecap:butt;stroke-dasharray:5.69, 5.69"
       id="line2388" />
    <line
       x1="65.709999"
       y1="207.53"
       x2="65.709999"
       y2="183.58"
       style="stroke:#b0bec5;stroke-width:1.07;stroke-linecap:butt;stroke-dasharray:5.69, 5.69"
       id="line2390" />
    <circle
       cx="94.349998"
       cy="164.28999"
       r="5.1599998"
       style="fill:#b0bec5;fill-opacity:0.75;stroke:#ffffff;stroke-width:0.71;stroke-opacity:0.75"
       id="circle2392" />
    <circle
       cx="336.10001"
       cy="136.25999"
       r="5.1599998"
       style="fill:#b0bec5;fill-opacity:0.75;stroke:#ffffff;stroke-width:0.71;stroke-opacity:0.75"
       id="circle2394" />
    <circle
       cx="79.769997"
       cy="153.69"
       r="5.1599998"
       style="fill:#b0bec5;fill-opacity:0.75;stroke:#ffffff;stroke-width:0.71;stroke-opacity:0.75"
       id="circle2396" />
    <circle
       cx="281.39001"
       cy="123.2"
       r="5.1599998"
       style="fill:#b0bec5;fill-opacity:0.75;stroke:#ffffff;stroke-width:0.71;stroke-opacity:0.75"
       id="circle2398" />
    <circle
       cx="480.53"
       cy="75.260002"
       r="5.1599998"
       style="fill:#b0bec5;fill-opacity:0.75;stroke:#ffffff;stroke-width:0.71;stroke-opacity:0.75"
       id="circle2400" />
    <circle
       cx="117.27"
       cy="165.09"
       r="5.1599998"
       style="fill:#b0bec5;fill-opacity:0.75;stroke:#ffffff;stroke-width:0.71;stroke-opacity:0.75"
       id="circle2402" />
    <circle
       cx="83.129997"
       cy="175.05"
       r="5.1599998"
       style="fill:#b0bec5;fill-opacity:0.75;stroke:#ffffff;stroke-width:0.71;stroke-opacity:0.75"
       id="circle2404" />
    <circle
       cx="67.260002"
       cy="170.03"
       r="5.1599998"
       style="fill:#b0bec5;fill-opacity:0.75;stroke:#ffffff;stroke-width:0.71;stroke-opacity:0.75"
       id="circle2406" />
    <circle
       cx="156.22"
       cy="156.63"
       r="5.1599998"
       style="fill:#b0bec5;fill-opacity:0.75;stroke:#ffffff;stroke-width:0.71;stroke-opacity:0.75"
       id="circle2408" />
    <circle
       cx="360.28"
       cy="136.2"
       r="5.1599998"
       style="fill:#b0bec5;fill-opacity:0.75;stroke:#ffffff;stroke-width:0.71;stroke-opacity:0.75"
       id="circle2410" />
    <circle
       cx="45.290001"
       cy="187.25"
       r="5.1599998"
       style="fill:#b0bec5;fill-opacity:0.75;stroke:#ffffff;stroke-width:0.71;stroke-opacity:0.75"
       id="circle2412" />
    <circle
       cx="248.75999"
       cy="130.82001"
       r="5.1599998"
       style="fill:#b0bec5;fill-opacity:0.75;stroke:#ffffff;stroke-width:0.71;stroke-opacity:0.75"
       id="circle2414" />
    <circle
       cx="261.35001"
       cy="144.14999"
       r="5.1599998"
       style="fill:#b0bec5;fill-opacity:0.75;stroke:#ffffff;stroke-width:0.71;stroke-opacity:0.75"
       id="circle2416" />
    <circle
       cx="293.06"
       cy="186.95"
       r="5.1599998"
       style="fill:#b0bec5;fill-opacity:0.75;stroke:#ffffff;stroke-width:0.71;stroke-opacity:0.75"
       id="circle2418" />
    <circle
       cx="120.42"
       cy="180.50999"
       r="5.1599998"
       style="fill:#b0bec5;fill-opacity:0.75;stroke:#ffffff;stroke-width:0.71;stroke-opacity:0.75"
       id="circle2420" />
    <circle
       cx="52.290001"
       cy="194.53"
       r="5.1599998"
       style="fill:#00796b;stroke:#ffffff;stroke-width:0.71"
       id="circle2422" />
    <circle
       cx="42.400002"
       cy="190.03999"
       r="5.1599998"
       style="fill:#b0bec5;fill-opacity:0.75;stroke:#ffffff;stroke-width:0.71;stroke-opacity:0.75"
       id="circle2424" />
    <circle
       cx="256.75"
       cy="126.61"
       r="5.1599998"
       style="fill:#b0bec5;fill-opacity:0.75;stroke:#ffffff;stroke-width:0.71;stroke-opacity:0.75"
       id="circle2426" />
    <circle
       cx="243.66"
       cy="160.98"
       r="5.1599998"
       style="fill:#b0bec5;fill-opacity:0.75;stroke:#ffffff;stroke-width:0.71;stroke-opacity:0.75"
       id="circle2428" />
    <circle
       cx="211.34"
       cy="158.05"
       r="5.1599998"
       style="fill:#b0bec5;fill-opacity:0.75;stroke:#ffffff;stroke-width:0.71;stroke-opacity:0.75"
       id="circle2430" />
    <circle
       cx="84.300003"
       cy="197.86"
       r="5.1599998"
       style="fill:#b0bec5;fill-opacity:0.75;stroke:#ffffff;stroke-width:0.71;stroke-opacity:0.75"
       id="circle2432" />
    <circle
       cx="91.190002"
       cy="194.88"
       r="5.1599998"
       style="fill:#b0bec5;fill-opacity:0.75;stroke:#ffffff;stroke-width:0.71;stroke-opacity:0.75"
       id="circle2434" />
    <circle
       cx="471.82001"
       cy="110.82"
       r="5.1599998"
       style="fill:#b0bec5;fill-opacity:0.75;stroke:#ffffff;stroke-width:0.71;stroke-opacity:0.75"
       id="circle2436" />
    <circle
       cx="253.92999"
       cy="142.28999"
       r="5.1599998"
       style="fill:#b0bec5;fill-opacity:0.75;stroke:#ffffff;stroke-width:0.71;stroke-opacity:0.75"
       id="circle2438" />
    <circle
       cx="39.84"
       cy="169.69"
       r="5.1599998"
       style="fill:#b0bec5;fill-opacity:0.75;stroke:#ffffff;stroke-width:0.71;stroke-opacity:0.75"
       id="circle2440" />
    <circle
       cx="69.230003"
       cy="167.08"
       r="5.1599998"
       style="fill:#b0bec5;fill-opacity:0.75;stroke:#ffffff;stroke-width:0.71;stroke-opacity:0.75"
       id="circle2442" />
    <circle
       cx="48.16"
       cy="180.96001"
       r="5.1599998"
       style="fill:#b0bec5;fill-opacity:0.75;stroke:#ffffff;stroke-width:0.71;stroke-opacity:0.75"
       id="circle2444" />
    <circle
       cx="114.7"
       cy="183.14999"
       r="5.1599998"
       style="fill:#b0bec5;fill-opacity:0.75;stroke:#ffffff;stroke-width:0.71;stroke-opacity:0.75"
       id="circle2446" />
    <circle
       cx="92.360001"
       cy="206.14"
       r="5.1599998"
       style="fill:#b0bec5;fill-opacity:0.75;stroke:#ffffff;stroke-width:0.71;stroke-opacity:0.75"
       id="circle2448" />
    <circle
       cx="158.52"
       cy="158.44"
       r="5.1599998"
       style="fill:#b0bec5;fill-opacity:0.75;stroke:#ffffff;stroke-width:0.71;stroke-opacity:0.75"
       id="circle2450" />
    <circle
       cx="380.17001"
       cy="144.82001"
       r="5.1599998"
       style="fill:#b0bec5;fill-opacity:0.75;stroke:#ffffff;stroke-width:0.71;stroke-opacity:0.75"
       id="circle2452" />
    <circle
       cx="324.95999"
       cy="105.4"
       r="5.1599998"
       style="fill:#b0bec5;fill-opacity:0.75;stroke:#ffffff;stroke-width:0.71;stroke-opacity:0.75"
       id="circle2454" />
    <circle
       cx="71.620003"
       cy="149.37"
       r="5.1599998"
       style="fill:#b0bec5;fill-opacity:0.75;stroke:#ffffff;stroke-width:0.71;stroke-opacity:0.75"
       id="circle2456" />
    <circle
       cx="82.190002"
       cy="202.81"
       r="5.1599998"
       style="fill:#b0bec5;fill-opacity:0.75;stroke:#ffffff;stroke-width:0.71;stroke-opacity:0.75"
       id="circle2458" />
    <circle
       cx="166.45"
       cy="192.2"
       r="5.1599998"
       style="fill:#b0bec5;fill-opacity:0.75;stroke:#ffffff;stroke-width:0.71;stroke-opacity:0.75"
       id="circle2460" />
    <circle
       cx="370.92999"
       cy="106.6"
       r="5.1599998"
       style="fill:#00796b;stroke:#ffffff;stroke-width:0.71"
       id="circle2462" />
    <circle
       cx="65.709999"
       cy="207.53"
       r="5.1599998"
       style="fill:#b0bec5;fill-opacity:0.75;stroke:#ffffff;stroke-width:0.71;stroke-opacity:0.75"
       id="circle2464" />
    <path
       style="color:#000000;fill:#00796b;stroke:#ffffff;stroke-width:0.75;stroke-linejoin:round;stroke-miterlimit:10;stroke-dasharray:none;stroke-dashoffset:0;stroke-opacity:1"
       d="m 480.25977,99.3125 -5.58008,1.11914 -0.94532,0.1875 0.53516,2.69727 0.94922,-0.1875 a 1.3751375,1.3751375 0 0 0 0.002,0 l 5.58008,-1.1211 z m -9.22461,1.84375 c -5.39226,1.07971 -10.78608,2.15573 -16.17969,3.23633 l 0.53906,2.69726 c 5.39204,-1.08028 10.78606,-2.15634 16.17969,-3.23632 z m -18.8711,3.77734 c -5.40339,1.06367 -10.79214,2.16729 -16.18164,3.22852 l 0.53125,2.69727 c 5.40329,-1.06395 10.79018,-2.16759 16.17969,-3.22852 z m -18.88281,3.76954 c -5.3916,1.08088 -10.78588,2.15547 -16.17969,3.23632 l 0.54102,2.69727 c 5.39176,-1.08044 10.7859,-2.15501 16.17969,-3.23633 z m -18.87891,3.77343 c -5.38726,1.08652 -10.78401,2.14761 -16.17968,3.23438 l 0.54296,2.69726 c 5.38778,-1.08518 10.78601,-2.14812 16.18165,-3.23632 z M 395.53125,116.25 c -5.40011,1.06958 -10.78927,2.16897 -16.17969,3.23242 l 0.53321,2.69727 c 5.40159,-1.06566 10.79135,-2.16284 16.18164,-3.23047 z m -18.87891,3.77344 c -5.39498,1.07551 -10.78702,2.15701 -16.17968,3.23437 l 0.53906,2.69727 c 5.39416,-1.07766 10.78695,-2.15931 16.17969,-3.23438 z m -18.88086,3.77148 c -5.38357,1.09164 -10.78258,2.14548 -16.17968,3.23828 l 0.54687,2.69532 c 5.38413,-1.09018 10.78263,-2.14392 16.17969,-3.23829 z m -18.87109,3.77539 c -5.39886,1.0712 -10.78879,2.16514 -16.17969,3.23242 l 0.53516,2.69727 c 5.39968,-1.06903 10.78886,-2.16282 16.17969,-3.23242 z m -18.875,3.77344 c -5.39738,1.07188 -10.78976,2.16056 -16.18164,3.23242 l 0.53711,2.69727 c 5.397,-1.07288 10.78777,-2.16163 16.17969,-3.23242 z m -18.88477,3.76953 c -5.3821,1.09398 -10.78018,2.14451 -16.17773,3.24024 l 0.54688,2.69531 c 5.38259,-1.09269 10.78218,-2.14313 16.17968,-3.24024 z m -18.87109,3.77539 c -5.39391,1.07691 -10.78652,2.15693 -16.17969,3.23438 l 0.53907,2.69531 c 5.39366,-1.07755 10.7865,-2.15566 16.17968,-3.23242 z m -18.87305,3.77539 c -5.40112,1.06672 -10.79123,2.16463 -16.18164,3.23047 l 0.53321,2.69727 c 5.40068,-1.06788 10.79119,-2.16586 16.18164,-3.23047 z m -18.88281,3.76953 c -5.38692,1.08617 -10.78374,2.14609 -16.17969,3.23828 l 0.54493,2.69532 c 5.38544,-1.09007 10.78165,-2.15027 16.17773,-3.23828 z m -18.875,3.77539 c -5.39124,1.08087 -10.78553,2.15178 -16.17969,3.23243 L 210,156.13867 c 5.39152,-1.08012 10.78556,-2.15293 16.17969,-3.23437 z m -18.87109,3.77344 c -5.40528,1.06164 -10.79116,2.1715 -16.17969,3.23047 l 0.5293,2.69922 c 5.40505,-1.06222 10.79113,-2.17407 16.17968,-3.23242 z m -18.88281,3.77149 c -5.39017,1.08181 -10.785,2.15153 -16.17969,3.23632 l 0.54297,2.69532 c 5.38944,-1.08374 10.78297,-2.15164 16.17773,-3.23438 z m -18.87696,3.77343 c -5.38691,1.08721 -10.78393,2.14948 -16.17969,3.23633 l 0.54297,2.69531 c 5.38767,-1.08522 10.784,-2.14734 16.17969,-3.23632 z m -18.87109,3.77344 c -5.40152,1.06653 -10.79153,2.16694 -16.18164,3.23242 l 0.5332,2.69727 c 5.4011,-1.06766 10.7915,-2.16619 16.18164,-3.23047 z m -18.87891,3.77344 c -5.3938,1.07696 -10.7884,2.15685 -16.18164,3.23437 l 0.53906,2.69532 c 5.39357,-1.07759 10.78643,-2.15557 16.17969,-3.23243 z m -18.88086,3.77148 c -5.38557,1.08942 -10.78358,2.14786 -16.179684,3.23828 l 0.544921,2.69532 c 5.385973,-1.08838 10.783623,-2.14675 16.179693,-3.23828 z m -18.871091,3.77539 c -5.398016,1.07152 -10.79013,2.16151 -16.18164,3.23047 l 0.535156,2.69727 c 5.398465,-1.07035 10.790173,-2.16025 16.181641,-3.23047 z m -18.876953,3.77149 c -5.396831,1.07364 -10.787901,2.16297 -16.179687,3.23437 l 0.535156,2.69727 c 5.397263,-1.07249 10.787937,-2.16175 16.179687,-3.23438 z m -18.882812,3.77148 c -5.383629,1.091 -10.782476,2.14328 -16.179688,3.23828 l 0.546875,2.69532 c 5.383188,-1.09216 10.782435,-2.14453 16.179688,-3.23829 z"
       id="polyline2466" />
    <text
       x="85.400002"
       y="234.00999"
       style="font-size:11.04px;font-family:Arial"
       textLength="47.84"
       lengthAdjust="spacingAndGlyphs"
       id="text2468">Indonesia</text>
    <polyline
       points="85.40,230.06 85.14,230.07 83.85,230.15 81.90,230.26 80.04,230.34 78.40,230.35 76.99,230.26 75.48,230.06 74.08,229.77 72.82,229.46 71.55,229.12 70.18,228.67 68.90,228.17 67.52,227.51 66.27,226.82 65.16,226.14 64.06,225.43 62.89,224.58 61.82,223.71 60.71,222.67 59.72,221.63 58.88,220.64 58.05,219.63 57.19,218.47 56.44,217.31 55.69,215.98 55.07,214.69 54.57,213.49 54.08,212.28 53.62,210.91 53.25,209.58 52.95,208.07 52.73,206.43 52.57,204.56 52.41,202.63 52.31,201.43 52.29,201.23 "
       style="stroke-width:1.07;stroke-linecap:butt"
       id="polyline2470" />
    <polyline
       points="55.52,205.89 52.29,201.23 49.87,206.35 "
       style="stroke-width:1.07;stroke-linecap:butt"
       id="polyline2472" />
    <text
       x="179.91"
       y="129.16"
       text-anchor="middle"
       style="font-size:11.04px;font-family:Arial"
       textLength="75.410004"
       lengthAdjust="spacingAndGlyphs"
       id="text2474">Adjusted prices</text>
    <line
       x1="179.91"
       y1="131.75999"
       x2="179.91"
       y2="161.91"
       style="stroke-width:1.07;stroke-linecap:butt;stroke-dasharray:5.69, 5.69"
       id="line2476" />
    <text
       x="368.94"
       y="96.400002"
       style="font-size:11.04px;font-family:Arial"
       textLength="66.230003"
       lengthAdjust="spacingAndGlyphs"
       id="text2478">United States</text>
  </g>
  <g
     clip-path="url(#cpMC4wMHw1NzYuMDB8MC4wMHwzMjQuMDA=)"
     id="g2596"
     transform="translate(-7.09,-7.0885155)">
    <text
       x="546.70001"
       y="260.20999"
       style="font-size:11px;font-family:Arial;fill:#757575"
       textLength="6.1199999"
       lengthAdjust="spacingAndGlyphs"
       id="text2482">0</text>
    <text
       x="546.70001"
       y="207.78999"
       style="font-size:11px;font-family:Arial;fill:#757575"
       textLength="6.1199999"
       lengthAdjust="spacingAndGlyphs"
       id="text2484">2</text>
    <text
       x="546.70001"
       y="155.36"
       style="font-size:11px;font-family:Arial;fill:#757575"
       textLength="6.1199999"
       lengthAdjust="spacingAndGlyphs"
       id="text2486">4</text>
    <text
       x="546.70001"
       y="102.94"
       style="font-size:11px;font-family:Arial;fill:#757575"
       textLength="6.1199999"
       lengthAdjust="spacingAndGlyphs"
       id="text2488">6</text>
    <text
       x="546.70001"
       y="50.509998"
       style="font-size:11px;font-family:Arial;fill:#757575"
       textLength="6.1199999"
       lengthAdjust="spacingAndGlyphs"
       id="text2490">8</text>
    <polyline
       points="7.09,256.27 541.76,256.27 "
       style="stroke-width:1.16;stroke-linecap:butt"
       id="polyline2492" />
    <polyline
       points="31.39,259.01 31.39,256.27 "
       style="stroke-width:1.16;stroke-linecap:butt"
       id="polyline2494" />
    <polyline
       points="112.40,259.01 112.40,256.27 "
       style="stroke-width:1.16;stroke-linecap:butt"
       id="polyline2496" />
    <polyline
       points="193.41,259.01 193.41,256.27 "
       style="stroke-width:1.16;stroke-linecap:butt"
       id="polyline2498" />
    <polyline
       points="274.43,259.01 274.43,256.27 "
       style="stroke-width:1.16;stroke-linecap:butt"
       id="polyline2500" />
    <polyline
       points="355.44,259.01 355.44,256.27 "
       style="stroke-width:1.16;stroke-linecap:butt"
       id="polyline2502" />
    <polyline
       points="436.45,259.01 436.45,256.27 "
       style="stroke-width:1.16;stroke-linecap:butt"
       id="polyline2504" />
    <polyline
       points="517.46,259.01 517.46,256.27 "
       style="stroke-width:1.16;stroke-linecap:butt"
       id="polyline2506" />
    <text
       x="31.389999"
       y="269.07999"
       text-anchor="middle"
       style="font-size:11px;font-family:Arial;fill:#757575"
       textLength="6.1199999"
       lengthAdjust="spacingAndGlyphs"
       id="text2508">0</text>
    <text
       x="112.4"
       y="269.07999"
       text-anchor="middle"
       style="font-size:11px;font-family:Arial;fill:#757575"
       textLength="30.6"
       lengthAdjust="spacingAndGlyphs"
       id="text2510">15000</text>
    <text
       x="193.41"
       y="269.07999"
       text-anchor="middle"
       style="font-size:11px;font-family:Arial;fill:#757575"
       textLength="30.6"
       lengthAdjust="spacingAndGlyphs"
       id="text2512">30000</text>
    <text
       x="274.42999"
       y="269.07999"
       text-anchor="middle"
       style="font-size:11px;font-family:Arial;fill:#757575"
       textLength="30.6"
       lengthAdjust="spacingAndGlyphs"
       id="text2514">45000</text>
    <text
       x="355.44"
       y="269.07999"
       text-anchor="middle"
       style="font-size:11px;font-family:Arial;fill:#757575"
       textLength="30.6"
       lengthAdjust="spacingAndGlyphs"
       id="text2516">60000</text>
    <text
       x="436.45001"
       y="269.07999"
       text-anchor="middle"
       style="font-size:11px;font-family:Arial;fill:#757575"
       textLength="30.6"
       lengthAdjust="spacingAndGlyphs"
       id="text2518">75000</text>
    <text
       x="517.46002"
       y="269.07999"
       text-anchor="middle"
       style="font-size:11px;font-family:Arial;fill:#757575"
       textLength="30.6"
       lengthAdjust="spacingAndGlyphs"
       id="text2520">90000</text>
    <text
       x="233.39999"
       y="284.98001"
       style="font-size:12px;font-family:Arial;fill:#757575"
       textLength="26.01"
       lengthAdjust="spacingAndGlyphs"
       id="text2522">GDP</text>
    <text
       x="262.75"
       y="284.98001"
       style="font-size:12px;font-family:Arial;fill:#757575"
       textLength="17.34"
       lengthAdjust="spacingAndGlyphs"
       id="text2524">per</text>
    <text
       x="283.42999"
       y="284.98001"
       style="font-size:12px;font-family:Arial;fill:#757575"
       textLength="32.029999"
       lengthAdjust="spacingAndGlyphs"
       id="text2526">capita</text>
    <text
       transform="rotate(90,222.625,337.695)"
       style="font-size:12px;font-family:Arial;fill:#757575"
       textLength="17.34"
       lengthAdjust="spacingAndGlyphs"
       id="text2528">Big</text>
    <text
       transform="rotate(90,212.285,348.035)"
       style="font-size:12px;font-family:Arial;fill:#757575"
       textLength="22.68"
       lengthAdjust="spacingAndGlyphs"
       id="text2530">Mac</text>
    <text
       transform="rotate(90,199.28,361.04)"
       style="font-size:12px;font-family:Arial;fill:#757575"
       textLength="26.01"
       lengthAdjust="spacingAndGlyphs"
       id="text2532">price</text>
    <text
       x="7.0900002"
       y="33.98"
       style="font-size:12.5px;font-family:Arial;fill:#757575"
       textLength="18.059999"
       lengthAdjust="spacingAndGlyphs"
       id="text2534">Big</text>
    <text
       x="28.620001"
       y="33.98"
       style="font-size:12.5px;font-family:Arial;fill:#757575"
       textLength="23.610001"
       lengthAdjust="spacingAndGlyphs"
       id="text2536">Mac</text>
    <text
       x="55.700001"
       y="33.98"
       style="font-size:12.5px;font-family:Arial;fill:#757575"
       textLength="27.09"
       lengthAdjust="spacingAndGlyphs"
       id="text2538">price</text>
    <text
       x="86.260002"
       y="33.98"
       style="font-size:12.5px;font-family:Arial;fill:#757575"
       textLength="9.7299995"
       lengthAdjust="spacingAndGlyphs"
       id="text2540">in</text>
    <text
       x="99.459999"
       y="33.98"
       style="font-size:12.5px;font-family:Arial;fill:#757575"
       textLength="22.23"
       lengthAdjust="spacingAndGlyphs"
       id="text2542">July</text>
    <text
       x="125.15"
       y="33.98"
       style="font-size:12.5px;font-family:Arial;fill:#757575"
       textLength="27.790001"
       lengthAdjust="spacingAndGlyphs"
       id="text2544">2020</text>
    <text
       x="156.41"
       y="33.98"
       style="font-size:12.5px;font-family:Arial;fill:#757575"
       textLength="20.84"
       lengthAdjust="spacingAndGlyphs"
       id="text2546">and</text>
    <text
       x="180.73"
       y="33.98"
       style="font-size:12.5px;font-family:Arial;fill:#757575"
       textLength="27.09"
       lengthAdjust="spacingAndGlyphs"
       id="text2548">GDP</text>
    <text
       x="211.28999"
       y="33.98"
       style="font-size:12.5px;font-family:Arial;fill:#757575"
       textLength="18.059999"
       lengthAdjust="spacingAndGlyphs"
       id="text2550">per</text>
    <text
       x="232.81"
       y="33.98"
       style="font-size:12.5px;font-family:Arial;fill:#757575"
       textLength="33.34"
       lengthAdjust="spacingAndGlyphs"
       id="text2552">capita</text>
    <text
       x="269.63"
       y="33.98"
       style="font-size:12.5px;font-family:Arial;fill:#757575"
       textLength="9.7299995"
       lengthAdjust="spacingAndGlyphs"
       id="text2554">in</text>
    <text
       x="282.82999"
       y="33.98"
       style="font-size:12.5px;font-family:Arial;fill:#757575"
       textLength="27.790001"
       lengthAdjust="spacingAndGlyphs"
       id="text2556">2019</text>
    <text
       x="314.09"
       y="33.98"
       style="font-size:12.5px;font-family:Arial;fill:#757575"
       textLength="13.89"
       lengthAdjust="spacingAndGlyphs"
       id="text2558">(in</text>
    <text
       x="331.45001"
       y="33.98"
       style="font-size:12.5px;font-family:Arial;fill:#757575"
       textLength="17.370001"
       lengthAdjust="spacingAndGlyphs"
       id="text2560">US</text>
    <text
       x="352.28"
       y="33.98"
       style="font-size:12.5px;font-family:Arial;fill:#757575"
       textLength="40.98"
       lengthAdjust="spacingAndGlyphs"
       id="text2562">dollars)</text>
    <text
       x="7.0900002"
       y="17.110001"
       style="font-weight:bold;font-size:14px;font-family:Arial"
       textLength="22.540001"
       lengthAdjust="spacingAndGlyphs"
       id="text2564">Big</text>
    <text
       x="33.52"
       y="17.110001"
       style="font-weight:bold;font-size:14px;font-family:Arial"
       textLength="27.219999"
       lengthAdjust="spacingAndGlyphs"
       id="text2566">Mac</text>
    <text
       x="64.629997"
       y="17.110001"
       style="font-weight:bold;font-size:14px;font-family:Arial"
       textLength="33.450001"
       lengthAdjust="spacingAndGlyphs"
       id="text2568">price</text>
    <text
       x="101.97"
       y="17.110001"
       style="font-weight:bold;font-size:14px;font-family:Arial"
       textLength="12.43"
       lengthAdjust="spacingAndGlyphs"
       id="text2570">in</text>
    <text
       x="118.29"
       y="17.110001"
       style="font-weight:bold;font-size:14px;font-family:Arial"
       textLength="65.309998"
       lengthAdjust="spacingAndGlyphs"
       id="text2572">Indonesia</text>
    <text
       x="187.49001"
       y="17.110001"
       style="font-weight:bold;font-size:14px;font-family:Arial"
       textLength="36.549999"
       lengthAdjust="spacingAndGlyphs"
       id="text2574">lower</text>
    <text
       x="227.92999"
       y="17.110001"
       style="font-weight:bold;font-size:14px;font-family:Arial"
       textLength="29.530001"
       lengthAdjust="spacingAndGlyphs"
       id="text2576">than</text>
    <text
       x="261.35001"
       y="17.110001"
       style="font-weight:bold;font-size:14px;font-family:Arial"
       textLength="60.669998"
       lengthAdjust="spacingAndGlyphs"
       id="text2578">expected</text>
    <text
       x="7.0900002"
       y="304.98001"
       style="font-size:10.5px;font-family:Arial;fill:#9e9e9e"
       textLength="36.18"
       lengthAdjust="spacingAndGlyphs"
       id="text2580">Source:</text>
    <text
       x="46.18"
       y="304.98001"
       style="font-size:10.5px;font-family:Arial;fill:#9e9e9e"
       textLength="18.09"
       lengthAdjust="spacingAndGlyphs"
       id="text2582">The</text>
    <text
       x="67.190002"
       y="304.98001"
       style="font-size:10.5px;font-family:Arial;fill:#9e9e9e"
       textLength="51.93"
       lengthAdjust="spacingAndGlyphs"
       id="text2584">Economist;</text>
    <text
       x="122.03"
       y="304.98001"
       style="font-size:10.5px;font-family:Arial;fill:#9e9e9e"
       textLength="21"
       lengthAdjust="spacingAndGlyphs"
       id="text2586">IMF;</text>
    <text
       x="145.95"
       y="304.98001"
       style="font-size:10.5px;font-family:Arial;fill:#9e9e9e"
       textLength="37.02"
       lengthAdjust="spacingAndGlyphs"
       id="text2588">author's</text>
    <text
       x="185.88"
       y="304.98001"
       style="font-size:10.5px;font-family:Arial;fill:#9e9e9e"
       textLength="37.93"
       lengthAdjust="spacingAndGlyphs"
       id="text2590">analysis</text>
    <text
       x="7.0900002"
       y="314.70001"
       style="font-size:10.5px;font-family:Arial;fill:#9e9e9e"
       textLength="28.59"
       lengthAdjust="spacingAndGlyphs"
       id="text2592">Chart:</text>
    <text
       x="38.59"
       y="314.70001"
       style="font-size:10.5px;font-family:Arial;fill:#9e9e9e"
       textLength="56.759998"
       lengthAdjust="spacingAndGlyphs"
       id="text2594">@dzulfiqarfr</text>
  </g>
</svg>
